<svg width="778" height="498" viewBox="0 0 778 498" fill="none" xmlns="http://www.w3.org/2000/svg">
<path d="M65.867 382.536C58.6137 382.536 52.427 381.171 47.307 378.44C42.187 375.624 37.835 371.784 34.251 366.92L42.187 360.264C45.3443 364.445 48.843 367.645 52.683 369.864C56.523 371.997 61.0457 373.064 66.251 373.064C72.651 373.064 77.515 371.528 80.843 368.456C84.2563 365.384 85.963 361.288 85.963 356.168C85.963 351.901 84.683 348.616 82.123 346.312C79.563 344.008 75.339 342.173 69.451 340.808L62.155 339.144C53.963 337.267 47.691 334.451 43.339 330.696C39.0723 326.856 36.939 321.48 36.939 314.568C36.939 310.643 37.6643 307.144 39.115 304.072C40.5657 301 42.571 298.44 45.131 296.392C47.7763 294.344 50.891 292.808 54.475 291.784C58.1443 290.675 62.155 290.12 66.507 290.12C73.2483 290.12 79.0083 291.357 83.787 293.832C88.651 296.307 92.747 299.933 96.075 304.712L88.011 310.6C85.5363 307.187 82.5497 304.499 79.051 302.536C75.5523 300.573 71.2003 299.592 65.995 299.592C60.2777 299.592 55.755 300.829 52.427 303.304C49.1843 305.693 47.563 309.32 47.563 314.184C47.563 318.451 48.9283 321.693 51.659 323.912C54.475 326.045 58.699 327.752 64.331 329.032L71.627 330.696C80.4163 332.659 86.7737 335.645 90.699 339.656C94.6243 343.667 96.587 349 96.587 355.656C96.587 359.752 95.8617 363.464 94.411 366.792C93.0457 370.12 91.0403 372.936 88.395 375.24C85.7497 377.544 82.507 379.336 78.667 380.616C74.9123 381.896 70.6457 382.536 65.867 382.536ZM143.609 301.128V381H132.857V301.128H104.441V291.656H172.025V301.128H143.609ZM234.34 381L225.38 354.632H189.284L180.324 381H169.444L200.676 291.656H214.372L245.604 381H234.34ZM207.588 301.64H206.948L191.844 345.16H222.692L207.588 301.64ZM271.156 381H260.404V291.656H295.988C303.839 291.656 309.94 293.832 314.292 298.184C318.729 302.536 320.948 308.808 320.948 317C320.948 323.571 319.412 328.989 316.34 333.256C313.353 337.437 308.916 340.211 303.028 341.576L323.508 381H311.348L292.02 342.6H271.156V381ZM295.988 333.384C300.255 333.384 303.54 332.275 305.844 330.056C308.233 327.837 309.428 324.68 309.428 320.584V313.928C309.428 309.832 308.233 306.675 305.844 304.456C303.54 302.237 300.255 301.128 295.988 301.128H271.156V333.384H295.988ZM365.703 337.096L353.031 351.176V381H342.279V291.656H353.031V339.144H353.415L366.215 323.656L393.223 291.656H406.407L373.127 329.928L408.711 381H395.399L365.703 337.096ZM449.772 382.536C442.092 382.536 435.564 381.171 430.188 378.44C424.897 375.709 420.332 372.125 416.492 367.688L427.884 356.68C430.956 360.264 434.369 362.995 438.124 364.872C441.964 366.749 446.188 367.688 450.796 367.688C456.001 367.688 459.927 366.579 462.572 364.36C465.217 362.056 466.54 358.984 466.54 355.144C466.54 352.157 465.687 349.725 463.98 347.848C462.273 345.971 459.073 344.605 454.38 343.752L445.932 342.472C428.097 339.656 419.18 330.995 419.18 316.488C419.18 312.477 419.905 308.851 421.356 305.608C422.892 302.365 425.068 299.592 427.884 297.288C430.7 294.984 434.071 293.235 437.996 292.04C442.007 290.76 446.529 290.12 451.564 290.12C458.305 290.12 464.193 291.229 469.228 293.448C474.263 295.667 478.572 298.952 482.156 303.304L470.636 314.184C468.417 311.453 465.729 309.235 462.572 307.528C459.415 305.821 455.447 304.968 450.668 304.968C445.804 304.968 442.135 305.907 439.66 307.784C437.271 309.576 436.076 312.136 436.076 315.464C436.076 318.877 437.057 321.395 439.02 323.016C440.983 324.637 444.14 325.832 448.492 326.6L456.812 328.136C465.857 329.757 472.513 332.659 476.78 336.84C481.132 340.936 483.308 346.696 483.308 354.12C483.308 358.387 482.54 362.269 481.004 365.768C479.553 369.181 477.377 372.168 474.476 374.728C471.66 377.203 468.161 379.123 463.98 380.488C459.884 381.853 455.148 382.536 449.772 382.536ZM534.934 382.536C529.046 382.536 523.713 381.597 518.934 379.72C514.241 377.757 510.187 374.856 506.774 371.016C503.446 367.176 500.886 362.44 499.094 356.808C497.302 351.091 496.406 344.477 496.406 336.968C496.406 329.459 497.302 322.803 499.094 317C500.886 311.112 503.446 306.205 506.774 302.28C510.187 298.269 514.241 295.24 518.934 293.192C523.713 291.144 529.046 290.12 534.934 290.12C542.955 290.12 549.611 291.827 554.902 295.24C560.193 298.653 564.417 303.816 567.574 310.728L553.11 318.408C551.83 314.397 549.739 311.197 546.838 308.808C543.937 306.333 539.969 305.096 534.934 305.096C528.619 305.096 523.585 307.229 519.83 311.496C516.161 315.763 514.326 321.736 514.326 329.416V343.496C514.326 351.261 516.161 357.235 519.83 361.416C523.585 365.512 528.619 367.56 534.934 367.56C539.969 367.56 544.065 366.195 547.222 363.464C550.465 360.733 552.811 357.363 554.262 353.352L567.958 361.416C564.715 368.072 560.406 373.277 555.03 377.032C549.654 380.701 542.955 382.536 534.934 382.536ZM636.917 381L629.749 358.216H598.005L590.965 381H573.813L603.765 291.656H624.757L654.453 381H636.917ZM614.133 307.016H613.493L602.101 343.752H625.653L614.133 307.016ZM693.221 335.176L684.005 316.616H683.621V381H667.621V291.656H686.181L713.061 337.48L722.277 356.04H722.661V291.656H738.661V381H720.101L693.221 335.176Z" fill="#282864"/>
<path d="M163.326 459.576C161.054 459.576 159.006 459.224 157.182 458.52C155.358 457.784 153.806 456.712 152.526 455.304C151.246 453.864 150.254 452.088 149.55 449.976C148.846 447.832 148.494 445.336 148.494 442.488C148.494 439.672 148.846 437.176 149.55 435C150.254 432.792 151.246 430.952 152.526 429.48C153.806 427.976 155.358 426.84 157.182 426.072C159.006 425.304 161.054 424.92 163.326 424.92C166.43 424.92 168.99 425.56 171.006 426.84C173.022 428.088 174.638 430.072 175.854 432.792L169.566 436.056C169.118 434.648 168.414 433.528 167.454 432.696C166.526 431.832 165.15 431.4 163.326 431.4C161.182 431.4 159.454 432.104 158.142 433.512C156.862 434.888 156.222 436.904 156.222 439.56V444.936C156.222 447.592 156.862 449.624 158.142 451.032C159.454 452.408 161.182 453.096 163.326 453.096C165.118 453.096 166.542 452.616 167.598 451.656C168.686 450.664 169.486 449.48 169.998 448.104L175.95 451.56C174.702 454.12 173.054 456.104 171.006 457.512C168.99 458.888 166.43 459.576 163.326 459.576ZM193.886 459.576C191.678 459.576 189.662 459.208 187.838 458.472C186.014 457.736 184.462 456.648 183.182 455.208C181.902 453.736 180.91 451.928 180.206 449.784C179.502 447.608 179.15 445.096 179.15 442.248C179.15 439.4 179.502 436.904 180.206 434.76C180.91 432.584 181.902 430.776 183.182 429.336C184.462 427.864 186.014 426.76 187.838 426.024C189.662 425.288 191.678 424.92 193.886 424.92C196.094 424.92 198.11 425.288 199.934 426.024C201.758 426.76 203.31 427.864 204.59 429.336C205.87 430.776 206.862 432.584 207.566 434.76C208.27 436.904 208.622 439.4 208.622 442.248C208.622 445.096 208.27 447.608 207.566 449.784C206.862 451.928 205.87 453.736 204.59 455.208C203.31 456.648 201.758 457.736 199.934 458.472C198.11 459.208 196.094 459.576 193.886 459.576ZM193.886 453.096C196.094 453.096 197.806 452.376 199.022 450.936C200.27 449.496 200.894 447.432 200.894 444.744V439.752C200.894 437.064 200.27 435 199.022 433.56C197.806 432.12 196.094 431.4 193.886 431.4C191.678 431.4 189.95 432.12 188.702 433.56C187.486 435 186.878 437.064 186.878 439.752V444.744C186.878 447.432 187.486 449.496 188.702 450.936C189.95 452.376 191.678 453.096 193.886 453.096ZM224.936 443.16L221.72 436.44H221.576V459H214.712V425.496H222.68L231.848 441.336L235.064 448.056H235.208V425.496H242.072V459H234.104L224.936 443.16ZM263.414 431.976V459H256.118V431.976H247.046V425.496H272.486V431.976H263.414ZM284.773 459H277.477V425.496H293.365C294.901 425.496 296.293 425.752 297.541 426.264C298.789 426.776 299.845 427.512 300.709 428.472C301.605 429.4 302.293 430.52 302.773 431.832C303.253 433.144 303.493 434.6 303.493 436.2C303.493 438.472 302.981 440.456 301.957 442.152C300.965 443.848 299.445 445.08 297.397 445.848L303.973 459H295.861L290.005 446.712H284.773V459ZM292.453 440.568C293.541 440.568 294.389 440.296 294.997 439.752C295.637 439.176 295.957 438.344 295.957 437.256V435.144C295.957 434.056 295.637 433.24 294.997 432.696C294.389 432.12 293.541 431.832 292.453 431.832H284.773V440.568H292.453ZM330.461 459L328.061 451.032H316.877L314.477 459H307.085L318.125 425.496H327.149L338.045 459H330.461ZM322.541 432.12H322.301L318.605 444.84H326.285L322.541 432.12ZM354.763 459.576C352.491 459.576 350.443 459.224 348.619 458.52C346.795 457.784 345.243 456.712 343.963 455.304C342.683 453.864 341.691 452.088 340.987 449.976C340.283 447.832 339.931 445.336 339.931 442.488C339.931 439.672 340.283 437.176 340.987 435C341.691 432.792 342.683 430.952 343.963 429.48C345.243 427.976 346.795 426.84 348.619 426.072C350.443 425.304 352.491 424.92 354.763 424.92C357.867 424.92 360.427 425.56 362.443 426.84C364.459 428.088 366.075 430.072 367.291 432.792L361.003 436.056C360.555 434.648 359.851 433.528 358.891 432.696C357.963 431.832 356.587 431.4 354.763 431.4C352.619 431.4 350.891 432.104 349.579 433.512C348.299 434.888 347.659 436.904 347.659 439.56V444.936C347.659 447.592 348.299 449.624 349.579 451.032C350.891 452.408 352.619 453.096 354.763 453.096C356.555 453.096 357.979 452.616 359.035 451.656C360.123 450.664 360.923 449.48 361.435 448.104L367.387 451.56C366.139 454.12 364.491 456.104 362.443 457.512C360.427 458.888 357.867 459.576 354.763 459.576ZM386.461 431.976V459H379.165V431.976H370.093V425.496H395.533V431.976H386.461ZM419.644 459L408.844 425.496H416.236L421.228 441.576L423.868 452.088H424.012L426.556 441.576L431.548 425.496H438.7L427.804 459H419.644ZM443.087 459V425.496H465.887V431.976H450.383V438.84H463.679V445.272H450.383V452.52H465.887V459H443.087ZM479.539 459H472.243V425.496H488.131C489.667 425.496 491.059 425.752 492.307 426.264C493.555 426.776 494.611 427.512 495.475 428.472C496.371 429.4 497.059 430.52 497.539 431.832C498.019 433.144 498.259 434.6 498.259 436.2C498.259 438.472 497.747 440.456 496.723 442.152C495.731 443.848 494.211 445.08 492.163 445.848L498.739 459H490.627L484.771 446.712H479.539V459ZM487.219 440.568C488.307 440.568 489.155 440.296 489.763 439.752C490.403 439.176 490.723 438.344 490.723 437.256V435.144C490.723 434.056 490.403 433.24 489.763 432.696C489.155 432.12 488.307 431.832 487.219 431.832H479.539V440.568H487.219ZM503.291 459V453.192H507.611V431.304H503.291V425.496H519.227V431.304H514.907V453.192H519.227V459H503.291ZM525.305 459V425.496H547.529V431.976H532.601V438.84H545.321V445.272H532.601V459H525.305ZM552.088 459V453.192H556.408V431.304H552.088V425.496H568.024V431.304H563.704V453.192H568.024V459H552.088ZM574.102 459V425.496H596.902V431.976H581.398V438.84H594.694V445.272H581.398V452.52H596.902V459H574.102ZM610.555 459H603.259V425.496H619.147C620.683 425.496 622.075 425.752 623.323 426.264C624.571 426.776 625.627 427.512 626.491 428.472C627.387 429.4 628.075 430.52 628.555 431.832C629.035 433.144 629.275 434.6 629.275 436.2C629.275 438.472 628.763 440.456 627.739 442.152C626.747 443.848 625.227 445.08 623.179 445.848L629.755 459H621.643L615.787 446.712H610.555V459ZM618.235 440.568C619.323 440.568 620.171 440.296 620.779 439.752C621.419 439.176 621.739 438.344 621.739 437.256V435.144C621.739 434.056 621.419 433.24 620.779 432.696C620.171 432.12 619.323 431.832 618.235 431.832H610.555V440.568H618.235Z" fill="#FE4A3C"/>
<path d="M389.302 0L290 44.2421V110.61C290 172.323 332.587 230.063 389.302 244C446.572 229.955 488.605 172.323 488.605 110.61V44.2421L389.302 0ZM367.239 177.856L323.104 133.614L338.77 117.911L367.454 146.556L440.283 72.7803L455.948 88.6013L367.239 177.856Z" fill="#282864"/>
<path d="M388.829 49.1783C347.331 49.1783 313.643 82.0893 313.643 122.632C313.643 139.803 319.828 155.702 329.917 168.262C338.054 156.974 346.842 146.321 357.909 137.577C358.234 137.259 359.048 136.782 360.024 136.146C364.581 132.807 367.836 127.879 368.65 122.314V122.155C371.416 104.189 378.902 97.9883 399.896 97.9883C401.686 97.9883 403.802 97.9883 405.754 98.1473C416.495 98.6243 422.679 101.645 423.33 103.235C423.819 104.03 423.656 104.984 423.493 105.938L422.679 105.779C416.007 104.984 405.917 106.892 404.453 114.046C403.639 118.021 404.615 122.473 404.941 126.448C405.429 130.581 405.754 134.874 405.754 139.008C405.754 139.326 405.429 140.916 405.754 141.075C394.363 130.422 367.999 143.778 359.699 149.66C360.513 149.342 361.326 149.024 362.303 148.706C370.277 146.003 394.2 139.008 403.476 146.798C411.288 156.179 404.29 173.509 398.431 182.094C395.014 187.182 390.782 191.793 386.063 195.767C387.039 195.767 387.853 195.767 388.829 195.767C430.328 195.767 464.016 162.856 464.016 122.314C464.016 81.7713 430.491 49.1783 388.829 49.1783ZM397.455 88.9259C389.318 88.9259 382.645 82.4073 382.645 74.4578C382.645 66.5082 389.318 59.9896 397.455 59.9896C405.592 59.9896 412.264 66.5082 412.264 74.4578C412.264 82.4073 405.754 88.9259 397.455 88.9259Z" fill="#FE4A3C"/>
</svg>
